<?xml version="1.0" encoding="UTF-8"?>
<svg xmlns="http://www.w3.org/2000/svg" xmlns:xlink="http://www.w3.org/1999/xlink" viewBox="0 0 2534.54 720">
  <defs>
    <style>
      .cls-1 {
        fill: #df6a6a;
      }

      .cls-1, .cls-2, .cls-3, .cls-4 {
        stroke-width: 0px;
      }

      .cls-2 {
        fill: #f19251;
      }

      .cls-3 {
        fill: url(#_무제_그라디언트_294);
      }

      .cls-4 {
        fill: #f5ae7a;
      }
    </style>
    <radialGradient id="_무제_그라디언트_294" data-name="무제 그라디언트 294" cx="362.2" cy="498.82" fx="362.2" fy="498.82" r="613.61" gradientTransform="translate(-962.79 838.66) rotate(-90) scale(1.02 2.66)" gradientUnits="userSpaceOnUse">
      <stop offset="0" stop-color="#f08d8d"/>
      <stop offset=".48" stop-color="#f19049"/>
    </radialGradient>
  </defs>
  <g id="_텍스트" data-name="텍스트">
    <g id="_02_텍스트" data-name="02_텍스트">
      <path class="cls-1" d="M878.3,158.44l116.55,259.93,116.48-259.93h82.97v381.79h-80.65l.25-198.55c-18.82,42.42-89.68,198.55-89.68,198.55h-59.29l-89.24-198.84v198.84s-80.4,0-80.4,0V159.5l83.01-1.05Z"/>
      <path class="cls-2" d="M1367.08,283.71h7.24c25.16,0,49.47,10.17,72.92,30.51,11.38,11.04,19.13,20.69,23.27,28.96,12.41,22.07,18.62,45.34,18.62,69.82v7.76c0,4.83-.18,7.24-.52,7.24h-185.66c4.14,18.28,10.86,32.06,20.17,41.37,13.79,15.18,29.65,22.75,47.58,22.75,22.41,0,41.19-11.38,56.37-34.13,2.76-5.86,4.31-8.79,4.65-8.79,29.99,13.45,44.99,20.35,44.99,20.69-2.42,6.21-7.76,15.18-16.03,26.89-25.17,29.99-55,44.99-89.47,44.99h-1.55c-35.17,0-65.68-15.85-91.54-47.58-17.58-24.48-26.37-51.37-26.37-80.68v-1.03c0-40.34,15.51-74.47,46.54-102.4,22.75-17.58,45.68-26.38,68.78-26.38ZM1307.61,380.94h125.67v-.52c-2.76-8.61-9.49-18.44-20.17-29.48-13.11-11.38-27.41-17.07-42.92-17.07-23.79,0-43.27,12.59-58.44,37.75-.69,2.07-2.07,5.17-4.14,9.31Z"/>
      <path class="cls-2" d="M1671.73,283.71h.52c25.86,0,49.99,8.1,72.4,24.31,4.14,2.76,8.79,6.72,13.96,11.89,6.21,6.55,10.51,11.56,12.93,15,2.41,3.1,3.62,5,3.62,5.69-9.31,5.87-23.1,15-41.37,27.41-2.07-3.1-5.52-7.24-10.34-12.41-15.18-14.48-32.41-21.72-51.72-21.72s-35.34,6.72-50.16,20.17c-5.52,5.52-8.79,9.49-9.83,11.89-10.34,14.14-15.51,29.83-15.51,47.06,0,18.62,6.03,35.51,18.1,50.68,3.79,4.83,7.76,8.79,11.89,11.89,13.79,11.04,29.13,16.55,46.03,16.55,15.17,0,29.13-4.82,41.89-14.48,3.1-1.72,7.24-5.17,12.41-10.34,2.76-3.44,5.34-6.89,7.76-10.34,6.89,4.83,20.69,13.96,41.37,27.41-2.76,4.83-6.72,10.17-11.89,16.03-5.87,6.21-10,10.17-12.41,11.89-5.52,4.49-10.34,8.11-14.48,10.86-20.69,12.41-42.07,18.62-64.13,18.62h-2.07c-23.79,0-46.2-6.89-67.23-20.69-4.14-3.1-8.11-6.03-11.89-8.79-6.21-5.86-10.86-10.68-13.96-14.48-6.9-8.27-11.89-15.34-15-21.2-3.1-5.51-6.21-12.75-9.31-21.72-4.49-14.13-6.72-27.41-6.72-39.82v-4.14c0-19.3,4.65-38.61,13.96-57.92,3.1-5.51,6.55-11.03,10.34-16.55,2.76-4.14,7.06-9.48,12.93-16.03,6.89-6.55,12.93-11.38,18.1-14.48,21.72-14.82,44.99-22.24,69.82-22.24Z"/>
      <path class="cls-2" d="M1908,287.85v247.72h-50.16v-247.72h50.16ZM1931.95,183.15l-24.7-24.71-24.71,24.71-24.71-24.71-24.7,24.71,49.41,49.41,49.41-49.41Z"/>
      <path class="cls-2" d="M2112.49,284.23c25.16,0,47.58,6.04,67.23,18.1,5.51,3.45,11.89,8.62,19.13,15.51,6.55,6.21,10.68,10.52,12.41,12.93,4.14,5.52,7.93,10.86,11.38,16.03,11.38,20.69,17.07,42.92,17.07,66.71,0,28.62-8.79,54.82-26.37,78.61-2.07,3.45-6.38,8.79-12.93,16.03-1.03.69-2.59,1.9-4.65,3.62-24.48,20-51.55,29.99-81.19,29.99-21.72,0-41.37-6.21-58.96-18.62-3.1-2.07-7.59-5.69-13.45-10.86-.69-.69-1.55-1.72-2.59-3.1v138.08h-49.65c0-.35-.18-.52-.52-.52v-357.35l.52-.52h49.65v27.41c6.21-6.89,10.17-10.68,11.89-11.38,5.17-3.79,9.48-6.89,12.93-9.31,5.51-2.76,10.86-4.82,16.03-6.21,4.14-1.37,11.03-2.93,20.69-4.65,3.1,0,6.89-.17,11.38-.52ZM2039.57,407.83v10.34c0,5.17,1.2,12.24,3.62,21.2,2.41,5.87,4.65,11.04,6.72,15.51,2.76,3.8,6.55,8.45,11.38,13.96,5.51,5.17,9.13,8.27,10.86,9.31,4.14,2.76,7.76,5.17,10.86,7.24,11.03,4.49,20.86,6.72,29.48,6.72h3.1c15.51,0,29.99-5.17,43.44-15.51,2.76-1.72,6.21-4.82,10.34-9.31,8.27-9.65,13.96-19.82,17.07-30.51,2.41-7.58,3.62-15.51,3.62-23.79,0-19.65-6.38-37.23-19.13-52.75-5.52-5.86-8.97-9.13-10.34-9.83-13.79-10.68-28.96-16.03-45.51-16.03h-2.07c-9.31,0-19.48,2.25-30.51,6.72-5.17,2.76-11.04,6.9-17.58,12.41-6.21,6.55-10,11.04-11.38,13.45-2.76,3.8-4.83,7.42-6.21,10.86-1.38,3.1-3.1,7.42-5.17,12.93-1.73,7.93-2.59,13.62-2.59,17.07Z"/>
      <path class="cls-2" d="M2412.49,284.23h7.24c25.16,0,49.47,10.17,72.92,30.51,11.38,11.04,19.13,20.69,23.27,28.96,12.41,22.07,18.62,45.34,18.62,69.82v7.76c0,4.83-.18,7.24-.52,7.24h-185.66c4.14,18.28,10.86,32.06,20.17,41.37,13.79,15.18,29.65,22.75,47.58,22.75,22.41,0,41.19-11.38,56.37-34.13,2.76-5.86,4.31-8.79,4.65-8.79,29.99,13.45,44.99,20.35,44.99,20.69-2.42,6.21-7.76,15.18-16.03,26.89-25.17,29.99-55,44.99-89.47,44.99h-1.55c-35.17,0-65.68-15.85-91.54-47.58-17.58-24.48-26.37-51.37-26.37-80.68v-1.03c0-40.34,15.51-74.47,46.54-102.4,22.75-17.58,45.68-26.38,68.78-26.38ZM2353.02,381.45h125.67v-.52c-2.76-8.61-9.49-18.44-20.17-29.48-13.11-11.38-27.41-17.07-42.92-17.07-23.79,0-43.27,12.59-58.44,37.75-.69,2.07-2.07,5.17-4.14,9.31Z"/>
    </g>
  </g>
  <g id="_로고" data-name="로고">
    <g id="_02_로고" data-name="02_로고">
      <polygon class="cls-4" points="5.36 117.65 5.36 501.79 183.18 583.38 183.18 199.24 5.36 117.65"/>
      <path class="cls-3" d="M361,117.65h0c-113.08-51.89-242.55-51.89-355.63,0h0s177.82,81.59,177.82,81.59l177.82,81.59,177.82-81.59,177.82-81.59h0c-113.08-51.89-242.55-51.89-355.63,0h0Z"/>
      <path class="cls-1" d="M688.2,161.29l-298.77,138.13c-15.7,7.26-28.43,26.12-28.43,42.13v281.02c0,16.01,12.73,23.1,28.43,15.84l279.2-129.09,48,26.4V177.13c0-16.01-12.73-23.1-28.43-15.84ZM546.15,460.02l-68.32-38.06,34.16-50.62,34.16,19.03,34.16-50.62,34.16,19.03-68.32,101.24Z"/>
    </g>
  </g>
</svg>