<?xml version="1.0" encoding="UTF-8"?>
<svg xmlns="http://www.w3.org/2000/svg" xmlns:xlink="http://www.w3.org/1999/xlink" viewBox="0 0 720 772">
  <defs>
    <style>
      .cls-1 {
        fill: #df6a6a;
      }

      .cls-1, .cls-2, .cls-3, .cls-4 {
        stroke-width: 0px;
      }

      .cls-2 {
        fill: #f19251;
      }

      .cls-3 {
        fill: url(#_무제_그라디언트_294);
      }

      .cls-4 {
        fill: #f5ae7a;
      }
    </style>
    <radialGradient id="_무제_그라디언트_294" data-name="무제 그라디언트 294" cx="361.2" cy="408.31" fx="361.2" fy="408.31" r="613.61" gradientTransform="translate(-723.37 761.35) rotate(-90) scale(1.02 2.66)" gradientUnits="userSpaceOnUse">
      <stop offset="0" stop-color="#f08d8d"/>
      <stop offset=".48" stop-color="#f19049"/>
    </radialGradient>
  </defs>
  <g id="_텍스트" data-name="텍스트">
    <g id="_02_텍스트" data-name="02_텍스트">
      <path class="cls-1" d="M34.46,571.58l47.79,106.57,47.76-106.57h34.02v156.53h-33.07l.1-81.4c-7.72,17.39-36.77,81.4-36.77,81.4h-24.31l-36.59-81.52v81.52s-32.96,0-32.96,0v-156.1l34.03-.43Z"/>
      <path class="cls-2" d="M234.86,622.94h2.97c10.32,0,20.28,4.17,29.9,12.51,4.66,4.53,7.85,8.48,9.54,11.87,5.09,9.05,7.63,18.59,7.63,28.62v3.18c0,1.98-.07,2.97-.21,2.97h-76.12c1.7,7.49,4.45,13.15,8.27,16.96,5.65,6.22,12.16,9.33,19.51,9.33,9.19,0,16.89-4.66,23.11-13.99,1.13-2.4,1.77-3.6,1.91-3.6,12.3,5.51,18.45,8.34,18.45,8.48-.99,2.54-3.18,6.22-6.57,11.03-10.32,12.3-22.55,18.45-36.68,18.45h-.64c-14.42,0-26.93-6.5-37.53-19.51-7.21-10.03-10.81-21.06-10.81-33.08v-.42c0-16.54,6.36-30.53,19.08-41.98,9.33-7.21,18.73-10.81,28.2-10.81ZM210.48,662.8h51.52v-.21c-1.13-3.53-3.89-7.56-8.27-12.09-5.37-4.66-11.24-7-17.6-7-9.75,0-17.74,5.16-23.96,15.48-.28.85-.85,2.12-1.7,3.82Z"/>
      <path class="cls-2" d="M359.77,622.94h.21c10.6,0,20.49,3.32,29.68,9.97,1.7,1.13,3.6,2.76,5.72,4.88,2.54,2.69,4.31,4.74,5.3,6.15.99,1.27,1.48,2.05,1.48,2.33-3.82,2.41-9.47,6.15-16.96,11.24-.85-1.27-2.26-2.97-4.24-5.09-6.22-5.94-13.29-8.91-21.2-8.91s-14.49,2.76-20.57,8.27c-2.26,2.26-3.6,3.89-4.03,4.88-4.24,5.8-6.36,12.23-6.36,19.29,0,7.63,2.47,14.56,7.42,20.78,1.55,1.98,3.18,3.6,4.88,4.88,5.65,4.53,11.94,6.78,18.87,6.78,6.22,0,11.94-1.98,17.17-5.94,1.27-.71,2.97-2.12,5.09-4.24,1.13-1.41,2.19-2.83,3.18-4.24,2.83,1.98,8.48,5.72,16.96,11.24-1.13,1.98-2.76,4.17-4.88,6.57-2.41,2.54-4.1,4.17-5.09,4.88-2.26,1.84-4.24,3.32-5.94,4.45-8.48,5.09-17.25,7.63-26.29,7.63h-.85c-9.75,0-18.94-2.83-27.56-8.48-1.7-1.27-3.32-2.47-4.88-3.6-2.54-2.4-4.45-4.38-5.72-5.94-2.83-3.39-4.88-6.29-6.15-8.69-1.27-2.26-2.54-5.23-3.82-8.91-1.84-5.79-2.76-11.24-2.76-16.33v-1.7c0-7.91,1.91-15.83,5.72-23.75,1.27-2.26,2.68-4.52,4.24-6.78,1.13-1.7,2.9-3.89,5.3-6.57,2.83-2.68,5.3-4.66,7.42-5.94,8.91-6.08,18.45-9.12,28.62-9.12Z"/>
      <path class="cls-2" d="M456.64,624.63v101.56h-20.57v-101.56h20.57ZM466.46,581.71l-10.13-10.13-10.13,10.13-10.13-10.13-10.13,10.13,20.26,20.26,20.26-20.26Z"/>
      <path class="cls-2" d="M540.48,623.15c10.32,0,19.51,2.47,27.56,7.42,2.26,1.41,4.88,3.53,7.85,6.36,2.68,2.54,4.38,4.31,5.09,5.3,1.7,2.26,3.25,4.45,4.66,6.57,4.66,8.48,7,17.6,7,27.35,0,11.73-3.6,22.48-10.81,32.23-.85,1.41-2.62,3.6-5.3,6.57-.42.28-1.06.78-1.91,1.48-10.04,8.2-21.13,12.3-33.29,12.3-8.91,0-16.96-2.54-24.17-7.63-1.27-.85-3.11-2.33-5.51-4.45-.28-.28-.64-.71-1.06-1.27v56.61h-20.35c0-.14-.07-.21-.21-.21v-146.51l.21-.21h20.35v11.24c2.54-2.83,4.17-4.38,4.88-4.66,2.12-1.55,3.89-2.83,5.3-3.82,2.26-1.13,4.45-1.98,6.57-2.54,1.7-.56,4.52-1.2,8.48-1.91,1.27,0,2.83-.07,4.66-.21ZM510.58,673.83v4.24c0,2.12.49,5.02,1.48,8.69.99,2.41,1.91,4.53,2.76,6.36,1.13,1.56,2.68,3.47,4.66,5.72,2.26,2.12,3.74,3.39,4.45,3.82,1.7,1.13,3.18,2.12,4.45,2.97,4.52,1.84,8.55,2.76,12.09,2.76h1.27c6.36,0,12.3-2.12,17.81-6.36,1.13-.71,2.54-1.98,4.24-3.82,3.39-3.96,5.72-8.13,7-12.51.99-3.11,1.48-6.36,1.48-9.75,0-8.06-2.62-15.27-7.85-21.63-2.26-2.4-3.68-3.74-4.24-4.03-5.66-4.38-11.87-6.57-18.66-6.57h-.85c-3.82,0-7.99.92-12.51,2.76-2.12,1.13-4.53,2.83-7.21,5.09-2.54,2.69-4.1,4.53-4.66,5.51-1.13,1.56-1.98,3.04-2.54,4.45-.57,1.27-1.27,3.04-2.12,5.3-.71,3.25-1.06,5.59-1.06,7Z"/>
      <path class="cls-2" d="M663.48,623.15h2.97c10.32,0,20.28,4.17,29.9,12.51,4.66,4.53,7.85,8.48,9.54,11.87,5.09,9.05,7.63,18.59,7.63,28.62v3.18c0,1.98-.07,2.97-.21,2.97h-76.12c1.7,7.49,4.45,13.15,8.27,16.96,5.65,6.22,12.16,9.33,19.51,9.33,9.19,0,16.89-4.66,23.11-13.99,1.13-2.4,1.77-3.6,1.91-3.6,12.3,5.51,18.45,8.34,18.45,8.48-.99,2.54-3.18,6.22-6.57,11.03-10.32,12.3-22.55,18.45-36.68,18.45h-.64c-14.42,0-26.93-6.5-37.53-19.51-7.21-10.03-10.81-21.06-10.81-33.08v-.42c0-16.54,6.36-30.53,19.08-41.98,9.33-7.21,18.73-10.81,28.2-10.81ZM639.09,663.01h51.52v-.21c-1.13-3.53-3.89-7.56-8.27-12.09-5.37-4.66-11.24-7-17.6-7-9.75,0-17.74,5.16-23.96,15.48-.28.85-.85,2.12-1.7,3.82Z"/>
    </g>
  </g>
  <g id="_로고" data-name="로고">
    <g id="_02_로고" data-name="02_로고">
      <polygon class="cls-4" points="4.36 41.36 4.36 425.5 182.18 507.09 182.18 122.95 4.36 41.36"/>
      <path class="cls-3" d="M360,41.36h0c-113.08-51.89-242.55-51.89-355.63,0h0s177.82,81.59,177.82,81.59l177.82,81.59,177.82-81.59,177.82-81.59h0c-113.08-51.89-242.55-51.89-355.63,0h0Z"/>
      <path class="cls-1" d="M687.2,85l-298.77,138.13c-15.7,7.26-28.43,26.12-28.43,42.13v281.02c0,16.01,12.73,23.1,28.43,15.84l279.2-129.09,48,26.4V100.84c0-16.01-12.73-23.1-28.43-15.84ZM545.15,383.73l-68.32-38.06,34.16-50.62,34.16,19.03,34.16-50.62,34.16,19.03-68.32,101.24Z"/>
    </g>
  </g>
</svg>